<svg width="181" height="63" viewBox="0 0 181 63" fill="none" xmlns="http://www.w3.org/2000/svg">
<path d="M179.253 55.7345C179.253 58.899 177.109 61.3114 174.627 61.3114H6.88512C4.404 61.3114 2.25269 58.898 2.25269 55.7345V7.27351C2.25269 4.1106 4.40484 1.68872 6.88512 1.68872H174.626C177.108 1.68872 179.251 4.10951 179.251 7.27351L179.253 55.7345Z" fill="#2F2F32" stroke="white"/>
<path d="M174.086 0.642762C174.612 0.642762 175.119 0.717035 175.602 0.85627C175.113 0.701318 174.605 0.619207 174.086 0.619207H7.41935C6.90043 0.619207 6.39185 0.701337 5.90377 0.856275C6.38627 0.71704 6.8935 0.642762 7.41935 0.642762H174.086ZM175.602 62.1437C175.119 62.283 174.612 62.3572 174.086 62.3572H7.41935C6.89348 62.3572 6.38623 62.283 5.90372 62.1437C6.39182 62.2987 6.90042 62.3808 7.41935 62.3808H174.086C174.605 62.3808 175.114 62.2987 175.602 62.1437Z" fill="#717177" stroke="white"/>
<path d="M40.4234 31.1634C40.462 36.4968 43.745 38.8685 44.9016 39.5357C44.8881 39.5848 44.873 39.6383 44.8564 39.6961C44.7661 40.0094 44.6306 40.4451 44.4444 40.9631C44.0714 42.0006 43.4978 43.3606 42.682 44.7273L42.6819 44.7272L42.6763 44.7372C41.9741 45.9774 41.284 47.1494 40.4956 48.0192C39.7132 48.8825 38.8864 49.3902 37.9152 49.4086L37.9111 49.4087C36.9322 49.4354 36.2837 49.1093 35.4955 48.713L35.4691 48.6997C34.6599 48.2929 33.7339 47.8383 32.3154 47.8383C30.893 47.8383 29.9541 48.26 29.1308 48.6662C29.0757 48.6934 29.0213 48.7204 28.9676 48.747C28.2235 49.1162 27.5979 49.4266 26.7018 49.4705C25.8214 49.5082 24.979 48.9879 24.1312 48.0479C23.2896 47.1149 22.5289 45.865 21.8015 44.6364C20.3875 42.1959 19.1211 38.7386 18.5827 35.1329C18.0434 31.5211 18.243 27.8202 19.6926 24.8558L19.6936 24.8536C21.0958 21.9513 23.6167 20.1501 26.2392 20.1023L26.2421 20.1023C27.222 20.0786 28.1952 20.4706 29.1578 20.9198C29.2784 20.9761 29.3999 21.0338 29.5215 21.0915C29.8677 21.2558 30.2136 21.42 30.5356 21.5506C30.9692 21.7265 31.4269 21.8711 31.8674 21.8711C32.3132 21.8711 32.8064 21.6951 33.2743 21.4956C33.5323 21.3856 33.8289 21.2467 34.1324 21.1047C34.3691 20.9939 34.6099 20.8812 34.8398 20.7787C35.9613 20.2786 37.1434 19.8687 38.3084 20.0136L38.3305 20.0163L38.3528 20.0171C39.3173 20.0503 42.0501 20.4527 43.9437 23.3773C42.9564 24.1948 40.3898 26.7391 40.4234 31.1634ZM40.4234 31.1634L40.9234 31.1598M40.4234 31.1634C40.4234 31.1635 40.4234 31.1635 40.4234 31.1636L40.9234 31.1598M40.9234 31.1598C40.9674 37.244 45.4287 39.2553 45.4834 39.2773C45.4567 39.4191 44.7847 42.18 43.1114 44.9835L40.9234 31.1598ZM33.7923 13.1469L33.7929 13.1461C34.3577 12.3631 35.1376 11.6637 35.9765 11.151C36.6378 10.7468 37.3149 10.4712 37.9315 10.3526C37.9913 12.4145 37.2722 14.4285 36.2465 15.9459C35.1826 17.4259 33.5904 18.5061 32.0661 18.5675C31.9892 16.5622 32.8379 14.4645 33.7923 13.1469Z" fill="white" stroke="white"/>
<path d="M68.0754 43.3318L67.9758 42.9619H67.5926H61.8273H61.4394L61.343 43.3376L59.8594 49.1185H57.9538L63.3933 29.1584H66.1578L71.624 49.1185H69.6344L68.0754 43.3318ZM67.0926 41.3789H67.7481L67.5749 40.7467L66.0749 35.2736L66.0749 35.2736L66.0737 35.2692C65.9206 34.73 65.627 33.4321 65.1871 31.3537L65.1032 30.9572H64.698H64.6446H64.2331L64.154 31.3611C63.9809 32.2443 63.7015 33.5523 63.3163 35.2865L61.8458 40.7489L61.6763 41.3789H62.3286H67.0926Z" fill="white" stroke="white"/>
<path d="M77.0955 47.8154V55.2771H75.2528V39.4805C75.2528 38.0225 75.2236 36.5307 75.1673 35.0051H76.6795L76.8072 36.9337L76.8381 37.4007H77.3061H77.3595H77.6616L77.8021 37.1332C78.2433 36.2933 78.7843 35.6899 79.4151 35.2946C80.0445 34.9002 80.7921 34.6948 81.6768 34.6948C82.9994 34.6948 84.1175 35.2989 85.0474 36.5993L85.0476 36.5996C85.9804 37.902 86.4688 39.6456 86.4688 41.8761C86.4688 44.3732 85.8978 46.2829 84.8127 47.6595C83.8452 48.8789 82.6765 49.4606 81.2821 49.4606C80.5111 49.4606 79.8787 49.2975 79.3642 48.9937C78.851 48.6907 78.4251 48.23 78.0932 47.5863L77.9535 47.3154H77.6488H77.5955H77.0955V47.8154ZM83.6609 38.1068L83.6609 38.1067L83.6556 38.098C82.9639 36.9779 81.9887 36.3676 80.7555 36.3676C79.9071 36.3676 79.1499 36.7079 78.5012 37.3306L78.5012 37.3306L78.5001 37.3317C77.8467 37.9628 77.4307 38.7782 77.2389 39.7539C77.1479 40.1847 77.0968 40.5616 77.0968 40.8775V43.3976C77.0968 44.5876 77.4075 45.6255 78.0534 46.483C78.7143 47.3604 79.6009 47.8177 80.6768 47.8177C81.9354 47.8177 82.9238 47.2267 83.6031 46.1173C84.2641 45.0386 84.5728 43.6533 84.5728 41.9989C84.5728 40.4674 84.2816 39.1597 83.6609 38.1068Z" fill="white" stroke="white"/>
<path d="M96.3941 34.6948C97.7151 34.6948 98.8334 35.2987 99.7662 36.5995C100.695 37.9023 101.185 39.6462 101.185 41.8761C101.185 44.3734 100.614 46.2831 99.5273 47.6596C98.5611 48.8788 97.3926 49.4606 95.9981 49.4606C95.227 49.4606 94.5946 49.2975 94.0804 48.9938C93.5674 48.6908 93.1419 48.2302 92.8107 47.5866L92.6711 47.3154H92.3661H92.3127H91.8127V47.8154V55.2771H89.9701V39.4805C89.9701 38.0225 89.9409 36.5307 89.8846 35.0051H91.3968L91.5245 36.9337L91.5554 37.4007H92.0234H92.0767H92.3791L92.5195 37.1329C92.96 36.2931 93.5006 35.6898 94.1314 35.2946C94.7607 34.9002 95.5087 34.6948 96.3941 34.6948ZM98.3755 38.1068L98.3756 38.1067L98.3702 38.098C97.6787 36.9782 96.7063 36.3676 95.4714 36.3676C94.6216 36.3676 93.8659 36.7081 93.2163 37.3302L93.2162 37.3302L93.2147 37.3317C92.5608 37.9633 92.1463 38.7791 91.9547 39.7547C91.8655 40.1832 91.8127 40.5607 91.8127 40.8775V43.3976C91.8127 44.5875 92.1234 45.6249 92.766 46.4821L92.767 46.4834C93.4277 47.3586 94.3139 47.8177 95.3928 47.8177C96.6514 47.8177 97.6398 47.2267 98.3191 46.1173C98.9801 45.0386 99.2887 43.6533 99.2887 41.9989C99.2887 40.467 98.996 39.1594 98.3755 38.1068Z" fill="white" stroke="white"/>
<path d="M108.112 46.6312L107.694 48.409C108.712 49.0769 110.043 49.4291 111.729 49.4291C113.692 49.4291 115.157 48.8527 116.198 47.7512C117.148 46.7392 117.638 45.4185 117.638 43.7409C117.638 42.3765 117.301 41.2726 116.659 40.4051L108.112 46.6312ZM108.112 46.6312C109.277 47.3165 110.541 47.6634 111.898 47.6634C113.059 47.6634 114.029 47.3507 114.745 46.6686L114.746 46.6679C115.457 45.9879 115.794 45.0832 115.794 44.0165C115.794 43.0632 115.516 42.228 114.939 41.5457C114.378 40.8799 113.48 40.302 112.31 39.7897C110.808 39.1281 109.72 38.3292 109.009 37.4116C108.304 36.5012 107.95 35.4496 107.95 34.2373C107.95 32.6295 108.453 31.3486 109.438 30.3541L109.439 30.3532C110.414 29.364 111.725 28.8516 113.427 28.8516C114.811 28.8516 115.953 29.1063 116.874 29.5911L116.423 31.3261C115.49 30.8544 114.462 30.6204 113.347 30.6204C112.246 30.6204 111.322 30.9447 110.646 31.644L110.646 31.6438L110.637 31.6542C110.074 32.2705 109.795 33.0247 109.795 33.8893C109.795 34.8355 110.109 35.6509 110.753 36.2915C111.294 36.8585 112.224 37.4272 113.478 38.0114C114.957 38.7151 116.002 39.5185 116.659 40.405L108.112 46.6312Z" fill="white" stroke="white"/>
<path d="M122.111 32.0872L123.903 31.4483V34.5019V35.0019H124.403H127.037V36.5251H124.403H123.903V37.0251V44.363C123.903 45.3291 124.043 46.1362 124.387 46.7172C124.756 47.3393 125.337 47.6618 126.062 47.6618C126.34 47.6618 126.601 47.6473 126.843 47.6161L126.892 49.2135C126.453 49.3508 125.891 49.4275 125.193 49.4275C124.208 49.4275 123.482 49.0814 122.953 48.4069C122.429 47.7332 122.111 46.5181 122.111 44.6402V37.0219V36.5219H121.611H120.245V35.0019H121.611H122.111V34.5019V32.0872Z" fill="white" stroke="white"/>
<path d="M131.262 36.7414L131.262 36.7407C132.312 35.3756 133.712 34.6963 135.511 34.6963C137.235 34.6963 138.599 35.3612 139.643 36.7092C140.651 38.0299 141.174 39.7588 141.174 41.9374C141.174 44.1778 140.633 45.9715 139.591 47.3569C138.509 48.7666 137.094 49.4605 135.301 49.4605C133.577 49.4605 132.231 48.7958 131.213 47.4519C130.177 46.0851 129.642 44.3408 129.642 42.1878C129.642 39.9284 130.194 38.1256 131.262 36.7414ZM139.225 42.0461C139.225 40.5944 138.963 39.3178 138.409 38.2351C138.085 37.5798 137.675 37.0557 137.165 36.6953C136.65 36.3305 136.059 36.1517 135.41 36.1517C134.745 36.1517 134.141 36.329 133.617 36.6932C133.097 37.0537 132.682 37.5785 132.357 38.2351C131.802 39.3211 131.541 40.6173 131.541 42.1091C131.541 43.5619 131.803 44.8395 132.358 45.9214C133.035 47.2502 134.043 48.0019 135.385 48.0019C136.711 48.0019 137.71 47.2288 138.382 45.889C138.949 44.7892 139.225 43.5002 139.225 42.0461Z" fill="white" stroke="white"/>
<path d="M150.414 36.8808C150.284 36.8705 150.152 36.8653 150.018 36.8653C148.835 36.8653 147.904 37.4097 147.274 38.4439L147.274 38.4439L147.272 38.4465C146.74 39.3321 146.49 40.4233 146.49 41.6887V49.1188H144.65L144.675 39.266V39.2647C144.675 37.7258 144.647 36.3064 144.592 35.0067H146.062L146.149 37.4163L146.166 37.8984H146.649H146.727H147.099L147.206 37.5429C147.484 36.6223 147.913 35.9068 148.481 35.3782C149.034 34.9092 149.603 34.6948 150.203 34.6948C150.276 34.6948 150.347 34.6967 150.414 34.7004V36.8808Z" fill="white" stroke="white"/>
<path d="M159.022 47.849C160.119 47.849 161.147 47.6778 162.096 47.3297L162.355 48.6814C161.299 49.1557 160.061 49.3989 158.629 49.3989C156.775 49.3989 155.367 48.7623 154.34 47.5134C153.303 46.2486 152.757 44.5215 152.757 42.2807C152.757 40.0793 153.265 38.2877 154.248 36.876L154.248 36.876L154.251 36.8722C155.266 35.3859 156.607 34.6663 158.311 34.6663C159.974 34.6663 161.208 35.3771 162.068 36.8429C162.763 38.0322 163.127 39.5272 163.127 41.3467C163.127 41.7348 163.113 42.0749 163.085 42.3697H154.995H154.484L154.495 42.8809C154.531 44.4581 154.969 45.7406 155.88 46.6467L155.883 46.6494C156.707 47.4572 157.768 47.849 159.022 47.849ZM160.917 40.4804L161.416 40.4851C161.418 40.3895 161.418 40.2949 161.417 40.2012V39.9741H161.409C161.366 39.1166 161.168 38.3422 160.807 37.6605C160.527 37.1298 160.158 36.7068 159.692 36.4186C159.224 36.1297 158.687 35.9941 158.099 35.9941C156.97 35.9941 156.068 36.5627 155.416 37.5927C154.892 38.3981 154.589 39.3503 154.497 40.4316L154.451 40.9741H154.995H160.917V40.4804Z" fill="white" stroke="white"/>
<path d="M64.2545 12.723L64.2541 12.7225C63.5986 11.9424 62.6559 11.5818 61.51 11.5818C61.0466 11.5818 60.6311 11.6181 60.2711 11.702L59.8846 11.7921V12.1889V19.8891V20.3059L60.2946 20.3809C60.5179 20.4218 60.8767 20.4348 61.3286 20.4348C62.5183 20.4348 63.4967 20.0375 64.1898 19.1999C64.8731 18.3743 65.1793 17.2188 65.1793 15.8099C65.1793 14.5405 64.8954 13.4875 64.2545 12.723ZM65.6526 15.7642C65.6526 17.5381 65.203 18.7846 64.3894 19.596C63.6384 20.3417 62.5437 20.7483 61.0313 20.7483C60.4482 20.7483 59.9347 20.7258 59.4873 20.682V11.4184C60.081 11.3287 60.7152 11.2825 61.394 11.2825C62.8388 11.2825 63.8403 11.6525 64.4911 12.3099C65.2415 13.0758 65.6526 14.2011 65.6526 15.7642Z" fill="white" stroke="white"/>
<path d="M72.7384 19.8923C73.21 19.2643 73.4646 18.4423 73.4646 17.3833C73.4646 16.3568 73.2177 15.5646 72.7667 14.9694C72.3013 14.3712 71.7069 14.0813 70.9379 14.0813C70.1298 14.0813 69.5183 14.3809 69.0511 14.9862C68.5687 15.6111 68.3086 16.4388 68.3086 17.5062C68.3086 18.5205 68.5595 19.32 69.0274 19.9388L72.7384 19.8923ZM72.7384 19.8923C72.2554 20.521 71.6363 20.8256 70.8339 20.8256C70.0645 20.8256 69.4789 20.5356 69.0274 19.9388L72.7384 19.8923ZM69.1603 19.4561L69.1607 19.4568C69.5256 20.1707 70.0959 20.6175 70.8739 20.6175C71.6477 20.6175 72.213 20.1587 72.5729 19.4402C72.8744 18.8567 73.0153 18.1834 73.0153 17.4369C73.0153 16.6926 72.8793 16.0245 72.5874 15.4501C72.4146 15.1019 72.1892 14.8078 71.8966 14.6004C71.5981 14.3887 71.2557 14.2862 70.8873 14.2862C70.5133 14.2862 70.1651 14.3866 69.8612 14.5974C69.5626 14.8044 69.3333 15.0993 69.1593 15.4496C68.8646 16.0269 68.7313 16.7057 68.7313 17.4668C68.7313 18.2122 68.8677 18.8811 69.1603 19.4561Z" fill="white" stroke="white"/>
<path d="M83.4692 14.234H83.7891L82.4079 19.4484C82.4993 18.7773 82.6278 18.0647 82.7929 17.3092C82.7929 17.3091 82.793 17.309 82.793 17.3089L83.4692 14.234ZM81.8778 20.1465H82.2229L82.0877 20.657H81.5819L81.4529 20.1465H81.8392H81.8778ZM79.8472 15.0342H79.5302L79.7316 14.234H80.0888L80.286 15.0342H79.8725H79.8472ZM80.319 15.1682L80.8495 17.3208C80.8495 17.3209 80.8495 17.3211 80.8496 17.3212C81.0522 18.1504 81.2167 18.9472 81.3434 19.7132L80.8626 17.8105L80.8626 17.8105L80.8621 17.8086C80.6591 17.0179 80.4941 16.2322 80.3659 15.453L80.319 15.1682ZM78.9347 17.3998L79.2036 16.3318C79.1074 16.8275 78.9929 17.3167 78.8598 17.8002L78.8598 17.8002L78.8589 17.8033L78.6603 18.5436C78.7382 18.1955 78.8295 17.8145 78.9345 17.4008L78.9347 17.3998ZM78.2304 20.145L78.093 20.657H77.5726L75.9723 14.2324H76.3592L76.989 17.3607L76.989 17.3607L76.9895 17.3629C77.1597 18.1892 77.2995 18.9758 77.4114 19.7194L77.4755 20.145H77.9059H77.9312H78.2304Z" fill="white" stroke="white"/>
<path d="M91.1831 16.7093V20.6571H90.7858V16.9046C90.7858 16.2119 90.6774 15.6061 90.3898 15.1597C90.0779 14.6754 89.5947 14.439 89.0191 14.439C88.7587 14.439 88.5195 14.4915 88.3038 14.5915C88.3716 14.5218 88.446 14.4568 88.527 14.3961C88.821 14.1815 89.1413 14.0767 89.4965 14.0767C89.9367 14.0767 90.2871 14.2362 90.5809 14.5762L90.5809 14.5762L90.5834 14.5791C90.9546 15.0018 91.1831 15.6829 91.1831 16.7093ZM86.9292 14.2294L86.968 14.9183L86.9945 15.3902H87.4672H87.4729C87.2373 15.7959 87.1218 16.2547 87.1218 16.7519V20.6556H86.7245V15.8541C86.7245 15.3449 86.7141 14.8038 86.6939 14.2294H86.9292Z" fill="white" stroke="white"/>
<path d="M95.0366 20.657H94.6406V10.8257H95.0366V20.657Z" fill="white" stroke="white"/>
<path d="M98.8265 19.9392L98.8262 19.9388C98.3583 19.32 98.1074 18.5206 98.1074 17.5062C98.1074 16.4388 98.3675 15.6111 98.8499 14.9862C99.3172 14.3808 99.9288 14.0813 100.735 14.0813C101.505 14.0813 102.099 14.371 102.566 14.9696C103.017 15.5648 103.263 16.357 103.263 17.3833C103.263 18.4423 103.009 19.2643 102.537 19.8923C102.054 20.5209 101.434 20.8256 100.633 20.8256C99.8618 20.8256 99.2764 20.5355 98.8265 19.9392ZM98.9592 19.4561L98.9595 19.4568C99.3244 20.1707 99.8948 20.6175 100.673 20.6175C101.447 20.6175 102.011 20.1583 102.37 19.4407C102.674 18.8563 102.813 18.1824 102.813 17.4369C102.813 16.6928 102.677 16.0248 102.385 15.4505C102.213 15.1019 101.987 14.8077 101.695 14.6004C101.396 14.3888 101.054 14.2862 100.686 14.2862C100.312 14.2862 99.9632 14.3865 99.659 14.5974C99.3603 14.8045 99.1313 15.0995 98.958 15.45C98.6634 16.0272 98.5301 16.7059 98.5301 17.4668C98.5301 18.2122 98.6665 18.8811 98.9592 19.4561Z" fill="white" stroke="white"/>
<path d="M109.974 20.657H109.714L109.664 20.2415L109.61 19.8018H109.213C109.382 19.562 109.493 19.287 109.545 18.9815C109.566 18.8655 109.575 18.738 109.575 18.6055V17.4605V16.9706L109.086 16.9606C108.276 16.9441 107.578 17.0621 107.07 17.3914C106.523 17.7454 106.263 18.2971 106.263 18.9568C106.263 19.4102 106.365 19.8456 106.665 20.1681C106.945 20.4693 107.31 20.6175 107.714 20.6175C107.909 20.6175 108.095 20.5847 108.272 20.5227C108.002 20.7277 107.68 20.8256 107.293 20.8256C106.845 20.8256 106.51 20.6645 106.247 20.3389C106.002 20.0348 105.866 19.6452 105.866 19.141C105.866 18.3677 106.129 17.8357 106.628 17.4649L106.629 17.4646C107.152 17.0746 107.934 16.8507 109.036 16.8612L109.541 16.8659V16.3612V16.2226C109.541 15.67 109.419 15.1622 109.088 14.7902C108.747 14.407 108.264 14.2562 107.735 14.2562C107.262 14.2562 106.818 14.3492 106.411 14.5344L106.388 14.4472C106.823 14.2084 107.345 14.0813 107.969 14.0813C108.68 14.0813 109.135 14.2976 109.428 14.6623C109.738 15.0478 109.935 15.6828 109.935 16.6525V19.3867C109.935 19.8663 109.948 20.2906 109.974 20.657Z" fill="white" stroke="white"/>
<path d="M117.161 19.4647H117.159C117.405 19.0382 117.518 18.5525 117.518 18.0259V16.7879C117.518 16.5567 117.504 16.349 117.47 16.1741L117.47 16.1741L117.47 16.1709C117.389 15.763 117.226 15.3982 116.979 15.0876H116.991H117.018H117.518V14.5876V10.8257H117.917V19.1567C117.917 19.6853 117.925 20.1852 117.943 20.657H117.699L117.66 19.9373L117.634 19.4647H117.161ZM116.049 14.266C116.185 14.3433 116.305 14.4483 116.409 14.5883C116.148 14.4404 115.856 14.3633 115.539 14.3633C114.823 14.3633 114.263 14.7164 113.884 15.3361L113.884 15.3361L113.883 15.3378C113.525 15.9268 113.362 16.649 113.362 17.4762C113.362 18.2708 113.516 18.9666 113.867 19.5281C114.248 20.1416 114.806 20.4962 115.513 20.4962C115.818 20.4962 116.095 20.4283 116.34 20.2995C116.247 20.4098 116.146 20.4992 116.04 20.5706C115.799 20.7329 115.495 20.8255 115.103 20.8255C114.532 20.8255 114.044 20.5731 113.623 19.9819C113.199 19.3864 112.966 18.5848 112.966 17.5376C112.966 16.4114 113.219 15.5522 113.682 14.9181C114.128 14.3327 114.633 14.0796 115.221 14.0796C115.577 14.0796 115.846 14.1502 116.049 14.266Z" fill="white" stroke="white"/>
<path d="M125.612 19.4561L125.613 19.4568C125.978 20.1707 126.548 20.6175 127.326 20.6175C128.1 20.6175 128.666 20.1591 129.027 19.4398C129.326 18.8573 129.469 18.1844 129.469 17.4369C129.469 16.6924 129.333 16.0242 129.041 15.4497C128.867 15.102 128.642 14.8078 128.349 14.6004C128.051 14.3886 127.708 14.2862 127.339 14.2862C126.966 14.2862 126.618 14.3867 126.314 14.5974C126.016 14.8043 125.786 15.099 125.612 15.4492C125.317 16.0266 125.183 16.7056 125.183 17.4668C125.183 18.2122 125.32 18.8811 125.612 19.4561ZM129.917 17.3833C129.917 18.4423 129.662 19.2643 129.191 19.8923C128.707 20.5211 128.09 20.8256 127.286 20.8256C126.518 20.8256 125.932 20.5359 125.479 19.9386C125.012 19.3198 124.761 18.5204 124.761 17.5062C124.761 16.4388 125.021 15.6111 125.503 14.9862C125.97 14.381 126.582 14.0813 127.391 14.0813C128.159 14.0813 128.755 14.3714 129.219 14.9692C129.67 15.5644 129.917 16.3567 129.917 17.3833Z" fill="white" stroke="white"/>
<path d="M137.43 16.7093V20.6571H137.034V16.9046C137.034 16.212 136.925 15.606 136.638 15.1595C136.325 14.6752 135.842 14.439 135.266 14.439C135.006 14.439 134.767 14.4912 134.552 14.5908C134.62 14.5214 134.693 14.4565 134.774 14.3961C135.069 14.1812 135.389 14.0767 135.745 14.0767C136.183 14.0767 136.534 14.2361 136.828 14.5762L136.828 14.5762L136.831 14.5796C137.202 15.0018 137.43 15.6822 137.43 16.7093ZM133.72 15.3902C133.484 15.7967 133.37 16.2558 133.37 16.7519V20.6556H132.971V15.8541C132.971 15.3453 132.962 14.8042 132.942 14.2294H133.176L133.215 14.9183L133.241 15.3902H133.714H133.72Z" fill="white" stroke="white"/>
<path d="M145.795 14.469H145.295V14.969V18.5757C145.295 19.0676 145.366 19.5186 145.57 19.8621C145.797 20.2462 146.166 20.4507 146.61 20.4507C146.657 20.4507 146.703 20.4499 146.749 20.4483L146.758 20.7615C146.602 20.792 146.412 20.8099 146.183 20.8099C145.769 20.8099 145.491 20.6701 145.285 20.4064L145.284 20.4056C145.08 20.1459 144.925 19.6224 144.925 18.7127V14.969V14.469H144.425H144.006V14.2326H144.425H144.925V13.7326V12.7243L145.294 12.5927V13.731V14.231H145.794H146.833V14.469H145.795Z" fill="white" stroke="white"/>
<path d="M150.169 16.6903V20.6554H149.773V10.8257H150.169V14.8003V15.3003H150.545C150.425 15.4937 150.331 15.7116 150.257 15.9465L150.253 15.9597L150.25 15.973C150.196 16.1833 150.169 16.4243 150.169 16.6903ZM152.067 14.4389C151.87 14.4389 151.682 14.4663 151.504 14.5228C151.806 14.2144 152.163 14.0796 152.583 14.0796C153.013 14.0796 153.353 14.2367 153.639 14.5752C154.006 15.0084 154.231 15.704 154.231 16.7422V20.657H153.833V16.936C153.833 16.2339 153.725 15.6217 153.439 15.1708C153.129 14.6814 152.646 14.4389 152.067 14.4389Z" fill="white" stroke="white"/>
<path d="M160.758 15.3989L161.2 15.1649C161.045 14.8727 160.836 14.6277 160.562 14.4579C160.287 14.2873 159.975 14.2106 159.646 14.2106C158.99 14.2106 158.472 14.5477 158.113 15.1133C157.83 15.55 157.673 16.0573 157.621 16.6215L157.572 17.1667H158.119H161.029H161.518L161.528 16.6776C161.541 16.1181 161.436 15.6085 161.199 15.1641L160.758 15.3989ZM160.758 15.3989C160.879 15.6274 160.961 15.8832 161.001 16.1667H158.201C158.273 15.8758 158.384 15.6149 158.534 15.3831C158.818 14.9342 159.19 14.7106 159.646 14.7106C160.146 14.7106 160.515 14.9405 160.758 15.3989ZM160.098 20.542C160.558 20.542 160.997 20.4837 161.412 20.364L161.446 20.5416C161.005 20.7079 160.494 20.7957 159.902 20.7957C159.059 20.7957 158.442 20.51 157.994 19.963L157.993 19.9621C157.53 19.3988 157.274 18.6142 157.274 17.5535C157.274 16.5108 157.513 15.6849 157.96 15.0439L157.96 15.044L157.963 15.0395C158.416 14.3757 158.996 14.0671 159.747 14.0671C160.471 14.0671 160.994 14.3671 161.37 15.0102L161.37 15.0102L161.372 15.0134C161.69 15.5474 161.862 16.2329 161.862 17.0936C161.862 17.1819 161.86 17.2646 161.857 17.3417H158.119H157.606L157.619 17.8544C157.64 18.6703 157.866 19.3697 158.373 19.876L158.373 19.876L158.377 19.8799C158.837 20.3297 159.426 20.542 160.098 20.542Z" fill="white" stroke="white"/>
</svg>
