<svg width="180" height="63" viewBox="0 0 180 63" fill="none" xmlns="http://www.w3.org/2000/svg">
<path d="M6.6575 62.3808H173.095C176.308 62.3808 179.126 59.2211 179.126 55.125V7.875C179.126 3.77887 176.308 0.619212 173.095 0.619212H6.6575C3.44424 0.619212 0.626495 3.77886 0.626495 7.875V55.125C0.626495 59.2211 3.44424 62.3808 6.6575 62.3808Z" fill="#2F2F32" stroke="white"/>
<path d="M173.095 0.642766C173.618 0.642766 174.122 0.716308 174.602 0.854206C174.116 0.700609 173.611 0.619212 173.095 0.619212H6.6575C6.14175 0.619212 5.63619 0.700614 5.15084 0.85422C5.63061 0.716312 6.13483 0.642766 6.6575 0.642766H173.095ZM174.602 62.1458C174.122 62.2837 173.618 62.3572 173.095 62.3572H6.6575C6.13482 62.3572 5.63059 62.2837 5.15081 62.1458C5.63617 62.2994 6.14174 62.3808 6.6575 62.3808H173.095C173.611 62.3808 174.116 62.2994 174.602 62.1458Z" fill="#717177" stroke="white"/>
<path d="M63.1363 16.1338C63.1363 17.4489 62.8035 18.5022 62.1477 19.2877C61.3937 20.2189 60.4118 20.6875 59.2084 20.6875C58.0583 20.6875 57.0763 20.2111 56.2708 19.272C55.4636 18.3191 55.0608 17.1497 55.0608 15.7499C55.0608 14.3501 55.4636 13.1807 56.2708 12.2357C57.0763 11.2887 58.0583 10.8123 59.2084 10.8123C59.781 10.8123 60.3269 10.952 60.8478 11.2119C61.3671 11.4738 61.7899 11.8281 62.0961 12.2652L61.4004 13.096C60.8661 12.3499 60.1388 11.9817 59.2084 11.9817C58.3696 11.9817 57.6422 12.3282 57.0248 13.0271C56.4139 13.728 56.1077 14.6356 56.1077 15.7499C56.1077 16.8642 56.4139 17.7797 57.0248 18.4805C57.6422 19.1716 58.3696 19.5259 59.2084 19.5259C60.0989 19.5259 60.8478 19.1716 61.4387 18.4727C61.8281 18.01 62.0495 17.3721 62.1078 16.5571H59.2084V15.4191H63.0764C63.123 15.6652 63.1363 15.9034 63.1363 16.1338Z" fill="white" stroke="white" stroke-width="0.16" stroke-miterlimit="10"/>
<path d="M69.273 12.1884H65.6397V15.1809H68.9152V16.3188H65.6397V19.3113H69.273V20.4709H64.6111V11.0288H69.273V12.1884Z" fill="white" stroke="white" stroke-width="0.16" stroke-miterlimit="10"/>
<path d="M73.6036 20.4709H72.575V12.1884H70.3464V11.0288H75.8339V12.1884H73.6036V20.4709Z" fill="white" stroke="white" stroke-width="0.16" stroke-miterlimit="10"/>
<path d="M79.8052 20.4709V11.0288H80.8321V20.4709H79.8052Z" fill="white" stroke="white" stroke-width="0.16" stroke-miterlimit="10"/>
<path d="M85.3841 20.4709H84.3639V12.1884H82.127V11.0288H87.621V12.1884H85.3841V20.4709Z" fill="white" stroke="white" stroke-width="0.16" stroke-miterlimit="10"/>
<path d="M98.0099 19.2562C97.2227 20.2111 96.2474 20.6875 95.084 20.6875C93.9139 20.6875 92.9386 20.2111 92.1513 19.2562C91.3657 18.3033 90.9746 17.1339 90.9746 15.7499C90.9746 14.3658 91.3657 13.1964 92.1513 12.2435C92.9386 11.2887 93.9139 10.8123 95.084 10.8123C96.2407 10.8123 97.216 11.2887 98.0033 12.2514C98.7955 13.2122 99.1866 14.3737 99.1866 15.7499C99.1866 17.1339 98.7955 18.3033 98.0099 19.2562ZM92.9119 18.4648C93.5045 19.1716 94.2251 19.5259 95.084 19.5259C95.9361 19.5259 96.6634 19.1716 97.2493 18.4648C97.8402 17.758 98.1397 16.8504 98.1397 15.7499C98.1397 14.6493 97.8402 13.7418 97.2493 13.035C96.6634 12.3282 95.9361 11.9738 95.084 11.9738C94.2251 11.9738 93.5045 12.3282 92.9119 13.035C92.3211 13.7418 92.0215 14.6493 92.0215 15.7499C92.0215 16.8504 92.3211 17.758 92.9119 18.4648Z" fill="white" stroke="white" stroke-width="0.16" stroke-miterlimit="10"/>
<path d="M100.63 20.4709V11.0288H101.878L105.759 18.3722H105.804L105.759 16.5571V11.0288H106.786V20.4709H105.714L101.65 12.7652H101.605L101.65 14.5883V20.4709H100.63Z" fill="white" stroke="white" stroke-width="0.16" stroke-miterlimit="10"/>
<mask id="path-10-inside-1_111_221" fill="white">
<path d="M90.7218 34.2603C87.5944 34.2603 85.0396 37.0756 85.0396 40.9599C85.0396 44.8127 87.5944 47.6576 90.7218 47.6576C93.8558 47.6576 96.4106 44.8127 96.4106 40.9599C96.4106 37.0756 93.8558 34.2603 90.7218 34.2603ZM90.7218 45.0195C89.0058 45.0195 87.5295 43.3441 87.5295 40.9599C87.5295 38.5442 89.0058 36.8984 90.7218 36.8984C92.4377 36.8984 93.9207 38.5442 93.9207 40.9599C93.9207 43.3441 92.4377 45.0195 90.7218 45.0195ZM78.3238 34.2603C75.1898 34.2603 72.6417 37.0756 72.6417 40.9599C72.6417 44.8127 75.1898 47.6576 78.3238 47.6576C81.4562 47.6576 84.006 44.8127 84.006 40.9599C84.006 37.0756 81.4562 34.2603 78.3238 34.2603ZM78.3238 45.0195C76.6062 45.0195 75.1249 43.3441 75.1249 40.9599C75.1249 38.5442 76.6062 36.8984 78.3238 36.8984C80.0398 36.8984 81.5161 38.5442 81.5161 40.9599C81.5161 43.3441 80.0398 45.0195 78.3238 45.0195ZM63.5708 36.3137V39.1605H69.3179C69.1498 40.7512 68.7004 41.9207 68.0114 42.7357C67.1725 43.7201 65.866 44.8127 63.5708 44.8127C60.034 44.8127 57.2645 41.4363 57.2645 37.2528C57.2645 33.0692 60.034 29.6928 63.5708 29.6928C65.4832 29.6928 66.8746 30.5767 67.9015 31.7225L69.5975 29.7164C68.1612 28.0941 66.2505 26.8479 63.5708 26.8479C58.7208 26.8479 54.6448 31.5158 54.6448 37.2528C54.6448 42.9897 58.7208 47.6576 63.5708 47.6576C66.1922 47.6576 68.1612 46.6417 69.709 44.736C71.2952 42.8597 71.7895 40.2216 71.7895 38.0914C71.7895 37.4299 71.7429 36.8216 71.6597 36.3137H63.5708ZM123.898 38.5206C123.43 37.0224 121.987 34.2603 119.048 34.2603C116.135 34.2603 113.71 36.9752 113.71 40.9599C113.71 44.7123 116.11 47.6576 119.327 47.6576C121.929 47.6576 123.43 45.7814 124.048 44.6887L122.117 43.1669C121.473 44.2812 120.596 45.0195 119.327 45.0195C118.067 45.0195 117.164 44.3363 116.584 42.9897L124.159 39.2825L123.898 38.5206ZM116.175 40.7512C116.11 38.1682 117.871 36.8452 119.133 36.8452C120.121 36.8452 120.96 37.4299 121.24 38.2667L116.175 40.7512ZM110.019 47.2501H112.508V27.5626H110.019V47.2501ZM105.941 35.7526H105.858C105.298 34.969 104.232 34.2603 102.88 34.2603C100.044 34.2603 97.4508 37.2055 97.4508 40.9816C97.4508 44.736 100.044 47.6576 102.88 47.6576C104.232 47.6576 105.298 46.9429 105.858 46.1357H105.941V47.0965C105.941 49.6578 104.784 51.034 102.918 51.034C101.397 51.034 100.453 49.7346 100.064 48.642L97.8986 49.711C98.5227 51.4868 100.175 53.6721 102.918 53.6721C105.838 53.6721 108.301 51.6404 108.301 46.6968V34.6678H105.941V35.7526ZM103.093 45.0195C101.377 45.0195 99.9407 43.3204 99.9407 40.9816C99.9407 38.621 101.377 36.8984 103.093 36.8984C104.784 36.8984 106.117 38.621 106.117 40.9816C106.117 43.3204 104.784 45.0195 103.093 45.0195ZM135.555 27.5626H129.6V47.2501H132.083V39.7905H135.555C138.313 39.7905 141.018 37.4299 141.018 33.6755C141.018 29.9231 138.306 27.5626 135.555 27.5626ZM135.62 37.0519H132.083V30.3011H135.62C137.474 30.3011 138.533 32.1222 138.533 33.6755C138.533 35.1993 137.474 37.0519 135.62 37.0519ZM150.97 34.2228C149.176 34.2228 147.311 35.16 146.543 37.237L148.747 38.3297C149.221 37.237 150.093 36.8826 151.015 36.8826C152.304 36.8826 153.61 37.7981 153.63 39.4144V39.6212C153.181 39.314 152.219 38.8593 151.035 38.8593C148.662 38.8593 146.244 40.4047 146.244 43.2889C146.244 45.9271 148.188 47.6261 150.373 47.6261C152.044 47.6261 152.966 46.7342 153.545 45.6967H153.63V47.2186H156.029V39.6664C156.029 36.1758 153.825 34.2228 150.97 34.2228ZM150.671 45.0116C149.859 45.0116 148.727 44.5352 148.727 43.3441C148.727 41.8202 150.138 41.2355 151.36 41.2355C152.453 41.2355 152.966 41.521 153.63 41.897C153.435 43.7201 152.109 45.0116 150.671 45.0116ZM164.766 34.654L161.912 43.1885H161.827L158.876 34.654H156.198L160.632 46.5807L158.102 53.2173H160.697L167.529 34.654H164.766ZM142.382 47.2501H144.872V27.5626H142.382V47.2501Z"/>
</mask>
<path d="M90.7218 34.2603C87.5944 34.2603 85.0396 37.0756 85.0396 40.9599C85.0396 44.8127 87.5944 47.6576 90.7218 47.6576C93.8558 47.6576 96.4106 44.8127 96.4106 40.9599C96.4106 37.0756 93.8558 34.2603 90.7218 34.2603ZM90.7218 45.0195C89.0058 45.0195 87.5295 43.3441 87.5295 40.9599C87.5295 38.5442 89.0058 36.8984 90.7218 36.8984C92.4377 36.8984 93.9207 38.5442 93.9207 40.9599C93.9207 43.3441 92.4377 45.0195 90.7218 45.0195ZM78.3238 34.2603C75.1898 34.2603 72.6417 37.0756 72.6417 40.9599C72.6417 44.8127 75.1898 47.6576 78.3238 47.6576C81.4562 47.6576 84.006 44.8127 84.006 40.9599C84.006 37.0756 81.4562 34.2603 78.3238 34.2603ZM78.3238 45.0195C76.6062 45.0195 75.1249 43.3441 75.1249 40.9599C75.1249 38.5442 76.6062 36.8984 78.3238 36.8984C80.0398 36.8984 81.5161 38.5442 81.5161 40.9599C81.5161 43.3441 80.0398 45.0195 78.3238 45.0195ZM63.5708 36.3137V39.1605H69.3179C69.1498 40.7512 68.7004 41.9207 68.0114 42.7357C67.1725 43.7201 65.866 44.8127 63.5708 44.8127C60.034 44.8127 57.2645 41.4363 57.2645 37.2528C57.2645 33.0692 60.034 29.6928 63.5708 29.6928C65.4832 29.6928 66.8746 30.5767 67.9015 31.7225L69.5975 29.7164C68.1612 28.0941 66.2505 26.8479 63.5708 26.8479C58.7208 26.8479 54.6448 31.5158 54.6448 37.2528C54.6448 42.9897 58.7208 47.6576 63.5708 47.6576C66.1922 47.6576 68.1612 46.6417 69.709 44.736C71.2952 42.8597 71.7895 40.2216 71.7895 38.0914C71.7895 37.4299 71.7429 36.8216 71.6597 36.3137H63.5708ZM123.898 38.5206C123.43 37.0224 121.987 34.2603 119.048 34.2603C116.135 34.2603 113.71 36.9752 113.71 40.9599C113.71 44.7123 116.11 47.6576 119.327 47.6576C121.929 47.6576 123.43 45.7814 124.048 44.6887L122.117 43.1669C121.473 44.2812 120.596 45.0195 119.327 45.0195C118.067 45.0195 117.164 44.3363 116.584 42.9897L124.159 39.2825L123.898 38.5206ZM116.175 40.7512C116.11 38.1682 117.871 36.8452 119.133 36.8452C120.121 36.8452 120.96 37.4299 121.24 38.2667L116.175 40.7512ZM110.019 47.2501H112.508V27.5626H110.019V47.2501ZM105.941 35.7526H105.858C105.298 34.969 104.232 34.2603 102.88 34.2603C100.044 34.2603 97.4508 37.2055 97.4508 40.9816C97.4508 44.736 100.044 47.6576 102.88 47.6576C104.232 47.6576 105.298 46.9429 105.858 46.1357H105.941V47.0965C105.941 49.6578 104.784 51.034 102.918 51.034C101.397 51.034 100.453 49.7346 100.064 48.642L97.8986 49.711C98.5227 51.4868 100.175 53.6721 102.918 53.6721C105.838 53.6721 108.301 51.6404 108.301 46.6968V34.6678H105.941V35.7526ZM103.093 45.0195C101.377 45.0195 99.9407 43.3204 99.9407 40.9816C99.9407 38.621 101.377 36.8984 103.093 36.8984C104.784 36.8984 106.117 38.621 106.117 40.9816C106.117 43.3204 104.784 45.0195 103.093 45.0195ZM135.555 27.5626H129.6V47.2501H132.083V39.7905H135.555C138.313 39.7905 141.018 37.4299 141.018 33.6755C141.018 29.9231 138.306 27.5626 135.555 27.5626ZM135.62 37.0519H132.083V30.3011H135.62C137.474 30.3011 138.533 32.1222 138.533 33.6755C138.533 35.1993 137.474 37.0519 135.62 37.0519ZM150.97 34.2228C149.176 34.2228 147.311 35.16 146.543 37.237L148.747 38.3297C149.221 37.237 150.093 36.8826 151.015 36.8826C152.304 36.8826 153.61 37.7981 153.63 39.4144V39.6212C153.181 39.314 152.219 38.8593 151.035 38.8593C148.662 38.8593 146.244 40.4047 146.244 43.2889C146.244 45.9271 148.188 47.6261 150.373 47.6261C152.044 47.6261 152.966 46.7342 153.545 45.6967H153.63V47.2186H156.029V39.6664C156.029 36.1758 153.825 34.2228 150.97 34.2228ZM150.671 45.0116C149.859 45.0116 148.727 44.5352 148.727 43.3441C148.727 41.8202 150.138 41.2355 151.36 41.2355C152.453 41.2355 152.966 41.521 153.63 41.897C153.435 43.7201 152.109 45.0116 150.671 45.0116ZM164.766 34.654L161.912 43.1885H161.827L158.876 34.654H156.198L160.632 46.5807L158.102 53.2173H160.697L167.529 34.654H164.766ZM142.382 47.2501H144.872V27.5626H142.382V47.2501Z" fill="white" stroke="white" stroke-width="2" mask="url(#path-10-inside-1_111_221)"/>
<path d="M13.9031 48.9196C13.9031 49.4312 13.9715 49.8453 14.0805 50.1689L29.8647 31.5057V31.4944L14.0824 12.8335C13.9723 13.1579 13.9031 13.5738 13.9031 14.0884V48.9196Z" fill="url(#paint0_linear_111_221)" stroke="white"/>
<path d="M36.1077 25.5917L31.1177 31.4943V31.5059L36.104 37.4112L42.2767 33.2642C42.2768 33.2641 42.2769 33.2641 42.277 33.264C43.0749 32.7265 43.3973 32.0766 43.3973 31.501C43.3973 30.9257 43.0753 30.2782 42.2782 29.7447L42.2769 29.7438L36.1077 25.5917Z" fill="url(#paint1_linear_111_221)" stroke="white"/>
<mask id="path-13-inside-2_111_221" fill="white">
<path d="M36.1154 38.1524L30.4914 31.5L13.8943 51.1343C14.5118 51.9021 15.5187 51.9947 16.6638 51.2269L36.1154 38.1524Z"/>
</mask>
<path d="M36.1154 38.1524L30.4914 31.5L13.8943 51.1343C14.5118 51.9021 15.5187 51.9947 16.6638 51.2269L36.1154 38.1524Z" fill="url(#paint2_linear_111_221)"/>
<path d="M30.4914 31.5L29.5299 30.706L30.4914 29.5685L31.453 30.7059L30.4914 31.5ZM13.8943 51.1343L12.9134 51.9049L12.278 51.1148L12.9327 50.3403L13.8943 51.1343ZM16.6638 51.2269L17.3684 52.2509L17.3673 52.2517L16.6638 51.2269ZM35.1538 38.9465L29.5299 32.2941L31.453 30.7059L37.0769 37.3583L35.1538 38.9465ZM31.453 32.294L14.8558 51.9283L12.9327 50.3403L29.5299 30.706L31.453 32.294ZM14.8752 50.3637C14.9763 50.4895 15.0569 50.5153 15.1432 50.5196C15.2647 50.5255 15.5373 50.4857 15.9604 50.202L17.3673 52.2517C16.6452 52.7359 15.8418 53.0337 15.0191 52.9934C14.1614 52.9513 13.4297 52.5469 12.9134 51.9049L14.8752 50.3637ZM15.9592 50.2028L35.4107 37.1284L36.82 39.1764L17.3684 52.2509L15.9592 50.2028Z" fill="white" mask="url(#path-13-inside-2_111_221)"/>
<path d="M14.7738 11.948L30.4914 30.5344L35.1911 24.9752L16.3146 12.2872C16.3141 12.2869 16.3135 12.2865 16.313 12.2862C15.816 11.9567 15.4109 11.8536 15.1135 11.8688C14.9935 11.8749 14.8802 11.9006 14.7738 11.948Z" fill="url(#paint3_linear_111_221)" stroke="white"/>
<defs>
<linearGradient id="paint0_linear_111_221" x1="29.0262" y1="49.2823" x2="2.96237" y2="27.248" gradientUnits="userSpaceOnUse">
<stop stop-color="#00A0FF"/>
<stop offset="0.0066" stop-color="#00A1FF"/>
<stop offset="0.2601" stop-color="#00BEFF"/>
<stop offset="0.5122" stop-color="#00D2FF"/>
<stop offset="0.7604" stop-color="#00DFFF"/>
<stop offset="1" stop-color="#00E3FF"/>
</linearGradient>
<linearGradient id="paint1_linear_111_221" x1="45.0504" y1="31.4978" x2="12.8322" y2="31.4978" gradientUnits="userSpaceOnUse">
<stop stop-color="#FFE000"/>
<stop offset="0.4087" stop-color="#FFBD00"/>
<stop offset="0.7754" stop-color="#FFA500"/>
<stop offset="1" stop-color="#FF9C00"/>
</linearGradient>
<linearGradient id="paint2_linear_111_221" x1="33.0572" y1="27.8836" x2="-2.28743" y2="-1.99665" gradientUnits="userSpaceOnUse">
<stop stop-color="#FF3A44"/>
<stop offset="1" stop-color="#C31162"/>
</linearGradient>
<linearGradient id="paint3_linear_111_221" x1="9.71644" y1="62.7225" x2="25.4994" y2="49.3797" gradientUnits="userSpaceOnUse">
<stop stop-color="#32A071"/>
<stop offset="0.0685" stop-color="#2DA771"/>
<stop offset="0.4762" stop-color="#15CF74"/>
<stop offset="0.8009" stop-color="#06E775"/>
<stop offset="1" stop-color="#00F076"/>
</linearGradient>
</defs>
</svg>
